<svg id="turtle" xmlns="http://www.w3.org/2000/svg" width="118.732" height="132.753" viewBox="0 0 118.732 132.753">
  <path id="Path_1482" data-name="Path 1482" d="M213.167,30.79l-5.1,13.3H173.43l-5.1-13.3a6.366,6.366,0,0,1,.43-5.468l8.393-14.541a6.374,6.374,0,0,1,5.518-3.187h16.152a6.378,6.378,0,0,1,5.518,3.184l.937,1.622,7.458,12.921A6.365,6.365,0,0,1,213.167,30.79Z" transform="translate(-131.381 -5.625)" fill="#f0ad4e"/>
  <g id="Group_2324" data-name="Group 2324" transform="translate(1.966 6.776)">
    <path id="Path_1483" data-name="Path 1483" d="M234.915,44.522l-5.1,13.3H200.948l-3.258-8.492a6.366,6.366,0,0,1,.43-5.468l8.393-14.541a6.372,6.372,0,0,1,5.518-3.184h14.995l7.458,12.921A6.363,6.363,0,0,1,234.915,44.522Z" transform="translate(-155.095 -26.133)" fill="#ffe6a2"/>
    <path id="Path_1484" data-name="Path 1484" d="M79.575,346.356,54.634,368.315a5.814,5.814,0,0,1-8.205-.521L36.071,356.031a5.814,5.814,0,0,1,.522-8.206l2.306-2.03,22.634-19.93,13.735,15.6Z" transform="translate(-34.62 -248.149)" fill="#ffe6a2"/>
  </g>
  <path id="Path_1485" data-name="Path 1485" d="M87.49,341.465,70.005,356.859a6.861,6.861,0,0,1-9.683-.616l-9.2-10.449,22.634-19.93Z" transform="translate(-44.876 -241.373)" fill="#f0ad4e"/>
  <path id="Path_1486" data-name="Path 1486" d="M304,346.358l18.042-20.491,24.94,21.96a5.814,5.814,0,0,1,.521,8.206L337.151,367.8a5.814,5.814,0,0,1-8.206.521Z" transform="translate(-232.192 -241.375)" fill="#ffe6a2"/>
  <g id="Group_2325" data-name="Group 2325" transform="translate(1.965 32.261)">
    <path id="Path_1487" data-name="Path 1487" d="M304,147.835l18.042,20.491,24.94-21.96a5.814,5.814,0,0,0,.521-8.206L337.151,126.4a5.814,5.814,0,0,0-8.206-.521Z" transform="translate(-234.157 -124.424)" fill="#f0ad4e"/>
    <path id="Path_1488" data-name="Path 1488" d="M79.573,147.834,69.2,159.613l-7.671,8.71L36.589,146.365a5.813,5.813,0,0,1-.522-8.206l10.358-11.764a5.814,5.814,0,0,1,8.206-.521l1.354,1.192Z" transform="translate(-34.617 -124.423)" fill="#f0ad4e"/>
  </g>
  <path id="Path_1489" data-name="Path 1489" d="M119.751,155.386l-10.372,11.779-17.99-15.838a7.456,7.456,0,0,1-.67-10.524l5.445-6.185Z" transform="translate(-72.83 -99.714)" fill="#ffe6a2"/>
  <path id="Path_1490" data-name="Path 1490" d="M320.62,341.465,338.1,356.858a6.861,6.861,0,0,0,9.683-.616l9.2-10.45-22.634-19.93Z" transform="translate(-244.499 -241.372)" fill="#f0ad4e"/>
  <path id="Path_1491" data-name="Path 1491" d="M304,155.386l10.372,11.779,17.991-15.838a7.456,7.456,0,0,0,.67-10.524l-5.445-6.185Z" transform="translate(-232.192 -99.715)" fill="#ffe6a2"/>
  <path id="Path_1513" data-name="Path 1513" d="M47.778,0A47.778,47.778,0,1,1,0,47.778,47.778,47.778,0,0,1,47.778,0Z" transform="translate(11.589 35.227)" fill="#ffe6a2"/>
  <path id="Path_1492" data-name="Path 1492" d="M119.134,231.424a47.777,47.777,0,0,1,0-95.551c-15.727.331-28.42,21.595-28.42,47.775S103.407,231.093,119.134,231.424Z" transform="translate(-60.141 -100.643)" fill="#ffe6a2"/>
  <g id="Group_2326" data-name="Group 2326" transform="translate(11.828 35.227)">
    <path id="Path_1493" data-name="Path 1493" d="M88.3,338.8l11.753,20.358-7.82,13.549A47.745,47.745,0,0,1,72.655,338.8Z" transform="translate(-72.655 -286.185)" fill="#f0ad4e"/>
    <path id="Path_1494" data-name="Path 1494" d="M88.3,204.6H72.656a47.746,47.746,0,0,1,19.578-33.907l7.82,13.549Z" transform="translate(-72.656 -161.662)" fill="#f0ad4e"/>
    <path id="Path_1495" data-name="Path 1495" d="M188.31,153.6l-7.826-13.554a47.9,47.9,0,0,1,39.159,0L211.818,153.6H188.31Z" transform="translate(-152.526 -135.863)" fill="#f0ad4e"/>
    <path id="Path_1496" data-name="Path 1496" d="M211.819,435.991l7.826,13.554a47.9,47.9,0,0,1-39.159,0l7.826-13.554Z" transform="translate(-152.527 -358.173)" fill="#f0ad4e"/>
    <path id="Path_1497" data-name="Path 1497" d="M200.6,241.616l11.755,20.358L200.6,282.332H177.091l-11.753-20.358,11.753-20.358Z" transform="translate(-141.307 -214.196)" fill="#f0ad4e"/>
    <path id="Path_1498" data-name="Path 1498" d="M345.427,338.8H361.07a47.748,47.748,0,0,1-19.576,33.907l-7.823-13.549Z" transform="translate(-265.994 -286.185)" fill="#f0ad4e"/>
    <path id="Path_1499" data-name="Path 1499" d="M345.427,204.6l-11.756-20.358,7.823-13.549A47.748,47.748,0,0,1,361.07,204.6Z" transform="translate(-265.994 -161.662)" fill="#f0ad4e"/>
  </g>
  <g id="Group_2327" data-name="Group 2327" transform="translate(11.828 35.23)">
    <path id="Path_1500" data-name="Path 1500" d="M92.276,345.69a64.184,64.184,0,0,0,5.282,17.8l-5.324,9.222A47.745,47.745,0,0,1,72.656,338.8H88.3Z" transform="translate(-72.656 -286.188)" fill="#ffe6a2"/>
    <path id="Path_1501" data-name="Path 1501" d="M92.234,170.693l5.324,9.222a64.184,64.184,0,0,0-5.282,17.8L88.3,204.6H72.656A47.745,47.745,0,0,1,92.234,170.693Z" transform="translate(-72.656 -161.665)" fill="#ffe6a2"/>
    <path id="Path_1502" data-name="Path 1502" d="M199.674,478.737c-.129,0-.26,0-.391-.005-.163,0-.328-.005-.491-.011h-.055c-.157-.005-.315-.008-.472-.016-.142-.005-.286-.01-.428-.018-.207-.008-.415-.018-.625-.031-.129-.005-.26-.013-.391-.024a47.5,47.5,0,0,1-16.336-4.077l2.772-4.8C187.887,475.293,193.549,478.6,199.674,478.737Z" transform="translate(-152.526 -383.186)" fill="#ffe6a2"/>
    <path id="Path_1503" data-name="Path 1503" d="M183.256,144.854l-2.772-4.8a47.5,47.5,0,0,1,16.336-4.077c.131-.01.262-.018.391-.024.21-.013.417-.024.625-.031.142-.008.286-.013.428-.018.157-.008.315-.01.472-.016h.055c.163-.005.328-.01.491-.01.131,0,.262-.005.391-.005C193.549,136.01,187.887,139.318,183.256,144.854Z" transform="translate(-152.526 -135.874)" fill="#ffe6a2"/>
  </g>
  <path id="Path_1504" data-name="Path 1504" d="M163.63,178.015a49.748,49.748,0,1,0-49.748,49.748A49.8,49.8,0,0,0,163.63,178.015Zm-32.994-42.638L124.5,146.006H103.263l-6.137-10.629a45.825,45.825,0,0,1,33.509,0Zm-45.29,6.829,6.124,10.609L80.853,171.2H68.579A45.82,45.82,0,0,1,85.346,142.206ZM68.579,184.824H80.853l10.616,18.39-6.124,10.609A45.824,45.824,0,0,1,68.579,184.824Zm28.549,35.827,6.137-10.628h2.218a1.969,1.969,0,1,0,0-3.938h-3.355a1.969,1.969,0,0,0-1.705.985l-6.91,11.968a45.779,45.779,0,0,1-4.969-2.879l6.9-11.961a1.968,1.968,0,0,0,0-1.969L83.7,181.871a1.969,1.969,0,0,0-1.705-.985H68.165c-.059-.95-.093-1.907-.093-2.872s.034-1.922.093-2.872H81.99a1.969,1.969,0,0,0,1.705-.984L95.448,153.8a1.968,1.968,0,0,0,0-1.969l-6.9-11.961a45.872,45.872,0,0,1,4.969-2.879l6.91,11.968a1.969,1.969,0,0,0,1.705.984h23.508a1.969,1.969,0,0,0,1.705-.984l6.91-11.968a45.841,45.841,0,0,1,4.97,2.88l-6.906,11.961a1.968,1.968,0,0,0,0,1.969l3.473,6.015a1.969,1.969,0,1,0,3.41-1.969l-2.905-5.031,6.126-10.609a45.824,45.824,0,0,1,16.766,29H146.913l-4.036-6.989a1.969,1.969,0,1,0-3.41,1.969l4.6,7.974a1.969,1.969,0,0,0,1.705.985H159.6c.059.95.093,1.907.093,2.872s-.034,1.922-.093,2.872H145.776a1.969,1.969,0,0,0-1.705.984l-11.756,20.358a1.969,1.969,0,0,0,0,1.969l6.906,11.96a45.871,45.871,0,0,1-4.97,2.88l-6.91-11.969a1.969,1.969,0,0,0-1.705-.984h-13.59a1.969,1.969,0,0,0,0,3.938H124.5l6.137,10.629a45.827,45.827,0,0,1-33.508,0Zm45.292-6.829-6.126-10.609,10.619-18.389h12.273A45.824,45.824,0,0,1,142.419,213.822Z" transform="translate(-54.515 -95.01)"/>
  <path id="Path_1505" data-name="Path 1505" d="M51.024,407.333l-3.307,2.911a3.851,3.851,0,0,1-5.427-.345L31.931,398.135a3.849,3.849,0,0,1,.344-5.427l5.447-4.8a1.969,1.969,0,0,0-2.6-2.955l-5.447,4.8a7.791,7.791,0,0,0-.7,10.984L39.335,412.5a7.792,7.792,0,0,0,10.984.7l3.307-2.911a1.969,1.969,0,0,0-2.6-2.956Z" transform="translate(-27.037 -284.78)"/>
  <path id="Path_1506" data-name="Path 1506" d="M404.468,389.755l-5.448-4.8a1.969,1.969,0,0,0-2.6,2.955l5.448,4.8a3.849,3.849,0,0,1,.345,5.427L391.853,409.9a3.85,3.85,0,0,1-5.427.345l-3.307-2.911a1.969,1.969,0,0,0-2.6,2.956l3.307,2.911a7.792,7.792,0,0,0,10.983-.7l10.357-11.763A7.792,7.792,0,0,0,404.468,389.755Z" transform="translate(-288.372 -284.781)"/>
  <path id="Path_1507" data-name="Path 1507" d="M370.605,127.494l6.551-5.769a3.845,3.845,0,0,1,5.427.345l10.357,11.765a3.85,3.85,0,0,1-.345,5.427l-7.088,6.241a1.969,1.969,0,0,0,2.6,2.955l7.088-6.242a7.792,7.792,0,0,0,.7-10.984l-10.357-11.764a7.783,7.783,0,0,0-10.985-.7L368,124.538a1.969,1.969,0,0,0,2.6,2.956Z" transform="translate(-279.102 -86.536)"/>
  <path id="Path_1508" data-name="Path 1508" d="M29.673,142.219l7.088,6.241a1.969,1.969,0,1,0,2.6-2.955l-7.088-6.241a3.849,3.849,0,0,1-.345-5.427L42.29,122.073a3.845,3.845,0,0,1,5.427-.345l6.552,5.769a1.969,1.969,0,0,0,2.6-2.955l-6.552-5.769a7.783,7.783,0,0,0-10.985.7L28.975,131.236A7.791,7.791,0,0,0,29.673,142.219Z" transform="translate(-27.037 -86.539)"/>
  <path id="Path_1509" data-name="Path 1509" d="M196.678,277.691l11.754-20.359a1.968,1.968,0,0,0,0-1.969L196.678,235a1.969,1.969,0,0,0-1.705-.984H171.464a1.969,1.969,0,0,0-1.705.984l-11.754,20.359a1.969,1.969,0,0,0,0,1.969l11.754,20.359a1.969,1.969,0,0,0,1.705.985h23.508A1.971,1.971,0,0,0,196.678,277.691ZM172.6,274.738l-10.617-18.39,10.617-18.39h21.235l10.617,18.39-10.617,18.39Z" transform="translate(-123.852 -173.343)"/>
  <path id="Path_1510" data-name="Path 1510" d="M163.93,33.88a1.969,1.969,0,0,0,3.676-1.411l-3.075-8.011a4.38,4.38,0,0,1,.3-3.777l8.392-14.54a4.417,4.417,0,0,1,3.813-2.2h16.153A4.42,4.42,0,0,1,197,6.137l8.4,14.543a4.38,4.38,0,0,1,.3,3.779l-3.074,8.01A1.969,1.969,0,1,0,206.3,33.88l3.074-8.008a8.3,8.3,0,0,0-.563-7.159l-8.4-14.545A8.367,8.367,0,0,0,193.188,0H177.035a8.367,8.367,0,0,0-7.223,4.172L161.42,18.712a8.3,8.3,0,0,0-.564,7.158Z" transform="translate(-125.746)"/>
  <path id="Path_1511" data-name="Path 1511" d="M205.684,55.9v4.291a1.969,1.969,0,0,0,3.938,0V55.9a1.969,1.969,0,0,0-3.938,0Z" transform="translate(-159.364 -39.95)"/>
  <path id="Path_1512" data-name="Path 1512" d="M291.137,55.9v4.291a1.969,1.969,0,1,0,3.938,0V55.9a1.969,1.969,0,1,0-3.938,0Z" transform="translate(-222.66 -39.95)"/>
</svg>
